<svg viewBox="-5 0 110 100" xmlns="http://www.w3.org/2000/svg">
    <symbol id="list_t" viewBox="0 0 100 100">
        <g stroke="black" fill="none" stroke-width="0.5">
            <rect width="100" height="10" />
            <rect y="10" width="20" height="10" />
            <rect y="10" x="20" width="20" height="10" />
            <rect y="10" x="40" width="20" height="10" />
            <rect y="10" x="60" width="20" height="10" />
            <rect y="10" x="80" width="20" height="10" />
        </g>
        <g font-size="6">
            <text x="35" y="7"> ngx_list_t </text>
            <text x="2" y="17"> *last </text>
            <text x="22" y="17"> part </text>
            <text x="42" y="17"> size </text>
            <text x="62" y="17">nalloc</text>
            <text x="82" y="17">*pool</text>
        </g>
    </symbol>
    <symbol id="list_part_t" viewBox="0 0 100 100">
        <g stroke="black" fill="none" stroke-width="0.5">
            <rect width="100" height="10" />
            <rect y="10" width="30" height="10" />
            <rect y="10" x="30" width="40" height="10" />
            <rect y="10" x="70" width="30" height="10" />
        </g>
        <g font-size="6">
            <text x="30" y="7"> ngx_list_part_t </text>
            <text x="2" y="17"> *elts </text>
            <text x="32" y="17"> nelts </text>
            <text x="72" y="17"> *next </text>
        </g>
    </symbol>
    <defs>
        <marker id="arrow" viewBox="0 0 10 10" refX="5" refY="5" markerWidth="6" markerHeight="6"
            orient="auto-start-reverse">
            <path d="M 0 0 L 10 5 L 0 10 L 5 5 z" />
        </marker>
    </defs>
    <line x1="25" x2="5" y1="20" y2="25" stroke="black" stroke-width="0.5" stroke-dasharray="1 1" stroke-opacity="0.6"/>
    <line x1="45" x2="105" y1="20" y2="25" stroke="black" stroke-width="0.5" stroke-dasharray="1 1" stroke-opacity="0.6"/>
    <path d="M 10 18 C -5 30, -5 60, 10 75" stroke="black" stroke-width="0.5" stroke-opacity="0.6" stroke-dasharray="3 2" fill="none" marker-end="url(#arrow)" />
    <use href="#list_t" />
    <use href="#list_part_t" x="0" y="25" />
    <path d="M 80 42 C 77 50, 19 45, 15 50" stroke="black" stroke-width="0.5" stroke-opacity="0.6" stroke-dasharray="3 2" fill="none" marker-end="url(#arrow)" />
    <use href="#list_part_t" x="0" y="50" />
    <path d="M 80 67 C 77 75, 19 70, 15 75" stroke="black" stroke-width="0.5" stroke-opacity="0.6" stroke-dasharray="3 2" fill="none" marker-end="url(#arrow)" />
    <use href="#list_part_t" x="0" y="75" />

</svg>