<svg viewBox="0 10 100 50" xmlns="http://www.w3.org/2000/svg" stroke-width=".1">
    <marker
        id="arrow"
        viewBox="0 0 10 10"
        refX="10"
        refY="5"
        markerWidth="6"
        markerHeight="6"
        orient="auto-start-reverse"
        >
        <polyline points="0,0 10,5 0,10 5,5" fill="red"/>
    </marker>

    <g stroke="black" stroke-linecap="round">
        <line x1="20" y1="20" x2="65" y2="20" />
        <line x1="20" y1="20" x2="11" y2="32" />
        <line x1="35" y1="20" x2="26" y2="32" />
        <line x1="50" y1="20" x2="41" y2="32" />
        <line x1="65" y1="20" x2="56" y2="32" />
        <line x1="11" y1="32" x2="56" y2="32" />
        <line x1="20" y1="20" x2="20" y2="35" stroke-dasharray="2 2" />
        <line x1="35" y1="20" x2="35" y2="35" stroke-dasharray="2 2" />
        <line x1="50" y1="20" x2="50" y2="35" stroke-dasharray="2 2" />
        <line x1="65" y1="20" x2="65" y2="35" />
        <line x1="11" y1="32" x2="11" y2="47" />
        <line x1="26" y1="32" x2="26" y2="47" />
        <line x1="41" y1="32" x2="41" y2="47" />
        <line x1="56" y1="32" x2="56" y2="47" />
    </g>
    <g stroke="red" stroke-linecap="round" font-size="12%">
        <polygon points="20,20 30,20 24,28 14,28 20,20" fill="red" opacity="0.3" />
        <text x="20" y="25" fill="black" stroke="none" class="peat">1m²</text>
        <text x="22" y="19" fill="red" stroke="none">
            <animate attributeName="y" values="18;19;18" dur="0.5s" repeatCount="indefinite" />
            ⬇️2700N
        </text>
        <g>
            <line x1="11" y1="32" x2="26" y2="32" stroke-linecap="butt" marker-end="url(#arrow)" marker-start="url(#arrow)"/>
            <text x="15" y="35" fill="red" stroke="none">⬇️1.5m</text>
        </g>
    </g>
</svg>