<svg viewBox="0 10 100 50" xmlns="http://www.w3.org/2000/svg" stroke-width=".1"><marker id="prefix__a" viewBox="0 0 10 10" refX="10" refY="5" markerWidth="6" markerHeight="6" orient="auto-start-reverse"><path fill="red" d="M0 0l10 5-10 5 5-5"/></marker><g stroke="#000" stroke-linecap="round"><path d="M20 20h45M20 20l-9 12M35 20l-9 12M50 20l-9 12M65 20l-9 12M11 32h45"/><path stroke-dasharray="2 2" d="M20 20v15M35 20v15M50 20v15"/><path d="M65 20v15M11 32v15M26 32v15M41 32v15M56 32v15"/></g><g stroke="red" stroke-linecap="round" font-size="12%"><path fill="red" opacity=".3" d="M20 20h10l-6 8H14l6-8z"/><text x="20" y="25" stroke="none" class="prefix__peat">1m²</text><text x="22" y="19" fill="red" stroke="none"><animate attributeName="y" values="18;19;18" dur="0.5s" repeatCount="indefinite"/> ⬇️2700N</text><path stroke-linecap="butt" marker-end="url(#prefix__a)" marker-start="url(#prefix__a)" d="M11 32h15"/><text x="15" y="35" fill="red" stroke="none">⬇️1.5m</text></g></svg>