<svg width="100" height="110" id="q119">
    <path id="q119d" d="M10 10 L15 11 L14 21 L15 35 L16 42 L 13 54 L17 61 L16 76 L14 83 L 16 95 L13 83 L15 76 L16 61 L12 54 L 15 42 L14 35 L13 21 L14 11 z"  />
    <path fill="none" stroke="#69696a"
    d="
    M20 15
    S 25 19 9 21 10 27 12 31 12 27 20 33 19 30 12 16 18 68 14 12 15 61 14 39 15 70 18 18 12 94 17 98 14 37 19 44 14 86 14 38 20 51 13 94 13 43 14 36 16 45 12 83 12 97  
    "
    stroke-width="1"
    stroke-linecap="round"
    stroke-dasharray="0,30"
    stroke-opacity="1"
    />
    <style>
        
    </style>
</svg>